<?xml version="1.0" encoding="UTF-8"?>
<!--Generator: Apple Native CoreSVG 232.5-->
<!DOCTYPE svg
PUBLIC "-//W3C//DTD SVG 1.1//EN"
       "http://www.w3.org/Graphics/SVG/1.1/DTD/svg11.dtd">
<svg version="1.1" xmlns="http://www.w3.org/2000/svg" xmlns:xlink="http://www.w3.org/1999/xlink" width="63.9375" height="63.7812">
 <g>
  <rect height="63.7812" opacity="0" width="63.9375" x="0" y="0"/>
  <path d="M31.875 63.75C49.3125 63.75 63.75 49.2812 63.75 31.875C63.75 14.4375 49.2812 0 31.8438 0C14.4375 0 0 14.4375 0 31.875C0 49.2812 14.4688 63.75 31.875 63.75Z" fill="#5f95e7"/>
  <path d="M16.625 31.9062C16.625 30.2812 17.75 29.1562 19.375 29.1562L29.1562 29.1562L29.1562 19.375C29.1562 17.75 30.25 16.5938 31.8438 16.5938C33.4688 16.5938 34.5938 17.75 34.5938 19.375L34.5938 29.1562L44.4062 29.1562C46 29.1562 47.1562 30.2812 47.1562 31.9062C47.1562 33.5 46 34.5625 44.4062 34.5625L34.5938 34.5625L34.5938 44.375C34.5938 46 33.4688 47.125 31.8438 47.125C30.25 47.125 29.1562 45.9688 29.1562 44.375L29.1562 34.5625L19.375 34.5625C17.75 34.5625 16.625 33.5 16.625 31.9062Z" fill="#ffffff"/>
 </g>
</svg>
