<?xml version="1.0" encoding="UTF-8"?>
<!--Generator: Apple Native CoreSVG 232.5-->
<!DOCTYPE svg
PUBLIC "-//W3C//DTD SVG 1.1//EN"
       "http://www.w3.org/Graphics/SVG/1.1/DTD/svg11.dtd">
<svg version="1.1" xmlns="http://www.w3.org/2000/svg" xmlns:xlink="http://www.w3.org/1999/xlink" width="63.9375" height="63.7812">
 <g>
  <rect height="63.7812" opacity="0" width="63.9375" x="0" y="0"/>
  <path d="M31.875 63.75C49.3125 63.75 63.75 49.2812 63.75 31.875C63.75 14.4375 49.2812 0 31.8438 0C14.4375 0 0 14.4375 0 31.875C0 49.2812 14.4688 63.75 31.875 63.75Z" fill="#e3e3e3"/>
  <path d="M15.3438 31.8438C15.3438 31.125 15.5938 30.625 16.25 29.9688L27.125 19.0312C27.5625 18.5938 28.125 18.375 28.8125 18.375C30.1562 18.375 31.1562 19.375 31.1562 20.7188C31.1562 21.4062 30.8438 22 30.4375 22.4688L26.4375 26.4375L22.5625 29.6875L29.375 29.4062L46.0938 29.4062C47.5 29.4062 48.5312 30.4062 48.5312 31.8438C48.5312 33.25 47.5312 34.25 46.0938 34.25L29.375 34.25L22.5312 34L26.4375 37.25L30.4375 41.2188C30.875 41.6562 31.1562 42.25 31.1562 42.9375C31.1562 44.2812 30.1562 45.3125 28.8125 45.3125C28.125 45.3125 27.5625 45.0625 27.125 44.625L16.25 33.7188C15.6562 33.125 15.3438 32.5625 15.3438 31.8438Z" fill="#4d4d4d"/>
 </g>
</svg>
