<svg width="400" height="400" viewBox="0 0 400 400" fill="none" xmlns="http://www.w3.org/2000/svg">
<path d="M400 200C400 310.457 310.457 400 200 400C89.5431 400 0 310.457 0 200C0 89.5431 89.5431 0 200 0C310.457 0 400 89.5431 400 200Z" fill="#747474"/>
<path d="M270.322 90.0833C267.497 90.0833 264.668 91.1595 262.515 93.3182L243.667 112.167L287.833 156.333L306.682 137.485C310.999 133.168 310.999 126.178 306.682 121.871L278.129 93.3182C275.97 91.1595 273.147 90.0833 270.322 90.0833ZM227.104 128.729L100.125 255.708V299.875H144.292L271.271 172.896L227.104 128.729Z" fill="white"/>
</svg>
